<svg width="50" height="51" viewBox="0 0 50 51" fill="none" xmlns="http://www.w3.org/2000/svg">
<g filter="url(#filter0_d)">
<path fill-rule="evenodd" clip-rule="evenodd" d="M24.8938 1.4839C36.1233 1.4839 45.2265 10.5873 45.2265 21.8169C45.2265 33.0461 36.1233 42.1494 24.8938 42.1494C13.6643 42.1494 4.56112 33.0461 4.56112 21.8169C4.56112 10.5873 13.6643 1.4839 24.8938 1.4839Z" fill="#212A3A"/>
<path fill-rule="evenodd" clip-rule="evenodd" d="M17 11H32C33.65 11 35 12.35 35 14V29C35 30.65 33.65 32 32 32H17C15.35 32 14 30.65 14 29V14C14 12.35 15.35 11 17 11ZM28 21.5C28 19.57 26.43 18 24.5 18C22.57 18 21 19.57 21 21.5C21 23.43 22.57 25 24.5 25C26.43 25 28 23.43 28 21.5ZM17 29V20H18.181C18.0626 20.4913 18.0019 20.9947 18 21.5C18 25.0899 20.9101 28 24.5 28C28.0899 28 31 25.0899 31 21.5C30.9986 20.9946 30.9379 20.4912 30.819 20H32V29H17ZM28 18H32V14H28V18Z" fill="white"/>
</g>
<defs>
<filter id="filter0_d" x="-1" y="0" width="52" height="52" filterUnits="userSpaceOnUse" color-interpolation-filters="sRGB">
<feFlood flood-opacity="0" result="BackgroundImageFix"/>
<feColorMatrix in="SourceAlpha" type="matrix" values="0 0 0 0 0 0 0 0 0 0 0 0 0 0 0 0 0 0 127 0"/>
<feOffset dy="4"/>
<feGaussianBlur stdDeviation="2"/>
<feColorMatrix type="matrix" values="0 0 0 0 0 0 0 0 0 0 0 0 0 0 0 0 0 0 0.25 0"/>
<feBlend mode="normal" in2="BackgroundImageFix" result="effect1_dropShadow"/>
<feBlend mode="normal" in="SourceGraphic" in2="effect1_dropShadow" result="shape"/>
</filter>
</defs>
</svg>
