<svg width="50" height="51" viewBox="0 0 50 51" fill="none" xmlns="http://www.w3.org/2000/svg">
<g filter="url(#filter0_d)">
<path fill-rule="evenodd" clip-rule="evenodd" d="M25.1627 1.4839C36.6533 1.4839 45.9683 10.5873 45.9683 21.8169C45.9683 33.0461 36.6533 42.1494 25.1627 42.1494C13.6721 42.1494 4.35714 33.0461 4.35714 21.8169C4.35714 10.5873 13.6721 1.4839 25.1627 1.4839Z" fill="#212A3A"/>
</g>
<path d="M27.5403 25.7281C28.4609 25.4384 29.6396 27.6406 30.8943 28.4834C31.8361 29.1219 32.5573 28.9841 32.5573 28.9841L35.9017 28.9372C35.9017 28.9372 37.6495 28.8322 36.8233 27.4803C36.7549 27.3678 36.3389 26.4781 34.334 24.6472C32.2376 22.7319 32.5217 23.0422 35.0456 19.7309C36.5835 17.7125 37.1988 16.4797 37.0062 15.9547C36.8213 15.4494 35.6918 15.5806 35.6918 15.5806L31.9237 15.6059C31.5568 15.6069 31.2458 15.7175 31.1042 16.0887C31.1013 16.0925 30.5062 17.6506 29.7127 18.9753C28.0362 21.7775 27.367 21.9266 27.0896 21.7512C26.4531 21.3453 26.6139 20.1228 26.6139 19.2537C26.6139 16.5378 27.0299 15.4053 25.7993 15.1128C25.3881 15.0153 25.0876 14.9516 24.039 14.9422C22.6985 14.9225 21.5603 14.9422 20.9151 15.2506C20.4866 15.4597 20.1582 15.9181 20.3576 15.9444C20.6079 15.9772 21.1693 16.0944 21.4698 16.4937C21.8559 17.0112 21.8444 18.1709 21.8444 18.1709C21.8444 18.1709 22.0649 21.3687 21.3244 21.7653C20.8159 22.0372 20.1207 21.4822 18.6252 18.9378C17.8616 17.6366 17.2847 16.1984 17.2847 16.1984C17.2847 16.1984 17.173 15.9312 16.9708 15.785C16.7301 15.6116 16.393 15.5562 16.393 15.5562L12.8166 15.5787C12.8166 15.5787 12.2793 15.5937 12.0819 15.8244C11.9066 16.0287 12.0674 16.4506 12.0674 16.4506C12.0674 16.4506 14.8687 22.9016 18.0407 26.1509C20.9488 29.1341 24.2537 28.9362 24.2537 28.9362H25.7511C25.7511 28.9362 26.2027 28.8856 26.4339 28.6437C26.6496 28.4187 26.6399 27.9959 26.6399 27.9959C26.6399 27.9959 26.6101 26.0187 27.5403 25.7281Z" fill="white"/>
<defs>
<filter id="filter0_d" x="0.357147" y="1.48389" width="49.6112" height="48.6656" filterUnits="userSpaceOnUse" color-interpolation-filters="sRGB">
<feFlood flood-opacity="0" result="BackgroundImageFix"/>
<feColorMatrix in="SourceAlpha" type="matrix" values="0 0 0 0 0 0 0 0 0 0 0 0 0 0 0 0 0 0 127 0"/>
<feOffset dy="4"/>
<feGaussianBlur stdDeviation="2"/>
<feColorMatrix type="matrix" values="0 0 0 0 0 0 0 0 0 0 0 0 0 0 0 0 0 0 0.25 0"/>
<feBlend mode="normal" in2="BackgroundImageFix" result="effect1_dropShadow"/>
<feBlend mode="normal" in="SourceGraphic" in2="effect1_dropShadow" result="shape"/>
</filter>
</defs>
</svg>
