<svg width="135" height="38" viewBox="0 0 135 38" fill="none" xmlns="http://www.w3.org/2000/svg">
<rect opacity="0.3" width="135" height="38" fill="white"/>
<path d="M24.3667 23V13.2H25.6267V17.54H28.5667V13.2H29.8267V23H28.5667V18.52H25.6267V23H24.3667ZM31.0906 23L33.4706 13.2H35.2906L37.6706 23H36.4106L35.7806 20.48H32.9806L32.3506 23H31.0906ZM33.1906 19.5H35.5706L34.4086 14.6H34.3526L33.1906 19.5ZM42.2873 23.14C42.0819 23.14 41.8906 23.1167 41.7133 23.07C41.5359 23.0327 41.4473 23.0093 41.4473 23V22.37C41.8579 22.37 42.1846 22.1927 42.4273 21.838C42.6699 21.4833 42.8099 20.8907 42.8473 20.06L43.1973 13.2H47.8873V23H46.6273V14.18H44.4153L44.1073 20.06C44.0513 21.1147 43.8553 21.894 43.5193 22.398C43.1926 22.8927 42.7819 23.14 42.2873 23.14ZM55.1011 23.14C54.4944 23.14 53.9858 23 53.5751 22.72C53.1738 22.44 52.8518 21.964 52.6091 21.292C52.3758 20.6107 52.2264 19.6867 52.1611 18.52H51.1111V23H49.8511V13.2H51.1111V17.54H52.1611C52.2264 16.42 52.3758 15.5333 52.6091 14.88C52.8518 14.2173 53.1738 13.7507 53.5751 13.48C53.9858 13.2 54.4944 13.06 55.1011 13.06C55.7451 13.06 56.2771 13.214 56.6971 13.522C57.1264 13.83 57.4578 14.3527 57.6911 15.09C57.9244 15.8273 58.0411 16.8307 58.0411 18.1C58.0411 19.3693 57.9244 20.3727 57.6911 21.11C57.4578 21.8473 57.1264 22.37 56.6971 22.678C56.2771 22.986 55.7451 23.14 55.1011 23.14ZM55.1011 22.3C55.5958 22.3 55.9971 21.9873 56.3051 21.362C56.6224 20.7273 56.7811 19.64 56.7811 18.1C56.7811 16.56 56.6224 15.4773 56.3051 14.852C55.9971 14.2173 55.5958 13.9 55.1011 13.9C54.6158 13.9 54.2144 14.2173 53.8971 14.852C53.5798 15.4773 53.4211 16.56 53.4211 18.1C53.4211 19.64 53.5798 20.7273 53.8971 21.362C54.2144 21.9873 54.6158 22.3 55.1011 22.3ZM61.9622 23.14C61.0942 23.14 60.3475 23.0467 59.7222 22.86V13.2H64.6222V14.18H60.9822V17.05H61.9622C62.7182 17.05 63.3202 17.1527 63.7682 17.358C64.2162 17.554 64.5382 17.876 64.7342 18.324C64.9395 18.772 65.0422 19.374 65.0422 20.13C65.0422 20.858 64.9395 21.4413 64.7342 21.88C64.5289 22.3187 64.2022 22.6407 63.7542 22.846C63.3155 23.042 62.7182 23.14 61.9622 23.14ZM61.9622 22.23C62.6062 22.23 63.0682 22.0713 63.3482 21.754C63.6375 21.4273 63.7822 20.886 63.7822 20.13C63.7822 19.374 63.6375 18.8373 63.3482 18.52C63.0682 18.1933 62.6062 18.03 61.9622 18.03H60.9822V22.23H61.9622ZM69.3155 23.14C68.6528 23.14 68.1021 22.9907 67.6635 22.692C67.2248 22.384 66.8888 21.8613 66.6555 21.124C66.4221 20.3773 66.3055 19.3693 66.3055 18.1C66.3055 16.8307 66.4221 15.8273 66.6555 15.09C66.8888 14.3433 67.2248 13.8207 67.6635 13.522C68.1021 13.214 68.6528 13.06 69.3155 13.06C69.9781 13.06 70.5288 13.214 70.9675 13.522C71.4061 13.8207 71.7421 14.3433 71.9755 15.09C72.2088 15.8273 72.3255 16.8307 72.3255 18.1C72.3255 19.3693 72.2088 20.3773 71.9755 21.124C71.7421 21.8613 71.4061 22.384 70.9675 22.692C70.5288 22.9907 69.9781 23.14 69.3155 23.14ZM69.3155 22.3C70.4821 22.3 71.0655 20.9 71.0655 18.1C71.0655 15.3 70.4821 13.9 69.3155 13.9C68.1488 13.9 67.5655 15.3 67.5655 18.1C67.5655 20.9 68.1488 22.3 69.3155 22.3ZM76.8093 12.36C76.3613 12.36 75.9646 12.2667 75.6193 12.08C75.2833 11.8933 75.0266 11.6367 74.8493 11.31L75.4093 10.75C75.5866 10.9273 75.792 11.0767 76.0253 11.198C76.268 11.3193 76.5293 11.38 76.8093 11.38C77.0893 11.38 77.346 11.3193 77.5793 11.198C77.822 11.0767 78.032 10.9273 78.2093 10.75L78.7693 11.31C78.592 11.6367 78.3306 11.8933 77.9853 12.08C77.6493 12.2667 77.2573 12.36 76.8093 12.36ZM74.0093 23V13.2H75.2693V20.48H75.3393L78.1393 13.2H79.6093V23H78.3493V15.72H78.2793L75.4093 23H74.0093ZM87.3098 23.14C86.4418 23.14 85.6952 23.0467 85.0698 22.86V13.34C85.6952 13.1533 86.4418 13.06 87.3098 13.06C88.2805 13.06 88.9898 13.27 89.4378 13.69C89.8858 14.11 90.1098 14.7633 90.1098 15.65C90.1098 16.6207 89.7365 17.3113 88.9898 17.722V17.778C90.0165 18.0767 90.5298 18.9307 90.5298 20.34C90.5298 21.0027 90.4225 21.5393 90.2078 21.95C90.0025 22.3607 89.6665 22.664 89.1998 22.86C88.7332 23.0467 88.1032 23.14 87.3098 23.14ZM87.1698 17.4C87.7298 17.4 88.1498 17.2553 88.4298 16.966C88.7098 16.6767 88.8498 16.238 88.8498 15.65C88.8498 14.53 88.2898 13.97 87.1698 13.97H86.3298V17.4H87.1698ZM87.3098 22.23C88.0098 22.23 88.5092 22.0853 88.8078 21.796C89.1158 21.4973 89.2698 21.012 89.2698 20.34C89.2698 19.612 89.1158 19.094 88.8078 18.786C88.5092 18.4687 88.0098 18.31 87.3098 18.31H86.3298V22.23H87.3098ZM97.1098 23.14C96.6898 23.14 96.3398 23 96.0598 22.72C95.7892 22.44 95.6025 22.02 95.4998 21.46L95.1498 19.64C95.0658 19.1827 94.9072 18.8607 94.6738 18.674C94.4498 18.478 94.1652 18.38 93.8198 18.38H93.3298V23H92.0698V13.2H93.3298V17.4H93.8198C94.4078 17.4 94.8045 16.98 95.0098 16.14L95.3598 14.74C95.4998 14.18 95.7052 13.76 95.9758 13.48C96.2465 13.2 96.5778 13.06 96.9698 13.06C97.1752 13.06 97.3665 13.0833 97.5438 13.13C97.7212 13.1673 97.8098 13.1907 97.8098 13.2V13.83C97.4738 13.83 97.2218 13.9093 97.0538 14.068C96.8858 14.2173 96.7645 14.4413 96.6898 14.74L96.3398 16.14C96.1998 16.7093 96.0365 17.1153 95.8498 17.358C95.6632 17.6007 95.4065 17.7687 95.0798 17.862V17.918C95.4625 18.0207 95.7658 18.198 95.9898 18.45C96.2138 18.6927 96.3772 19.0893 96.4798 19.64L96.8298 21.46C96.8858 21.7307 97.0025 21.95 97.1798 22.118C97.3665 22.286 97.6232 22.37 97.9498 22.37V23C97.9498 23.0093 97.8612 23.0327 97.6838 23.07C97.5065 23.1167 97.3152 23.14 97.1098 23.14ZM100.485 23.14C100.112 23.14 99.6455 23.0467 99.0855 22.86V22.23H100.065C100.457 22.23 100.765 22.0853 100.989 21.796C101.223 21.5067 101.419 20.9747 101.577 20.2C100.485 20.2 99.7901 19.64 99.4915 18.52L98.0215 13.2H99.2815L100.751 18.52C100.826 18.7627 100.947 18.954 101.115 19.094C101.283 19.2247 101.498 19.29 101.759 19.29L102.991 13.2H104.251L102.725 20.76C102.557 21.6 102.296 22.2067 101.941 22.58C101.596 22.9533 101.111 23.14 100.485 23.14ZM108.309 23.14C107.619 23.14 107.049 22.9907 106.601 22.692C106.153 22.384 105.813 21.8613 105.579 21.124C105.346 20.3867 105.229 19.3787 105.229 18.1C105.229 16.8307 105.346 15.8273 105.579 15.09C105.813 14.3527 106.139 13.83 106.559 13.522C106.989 13.214 107.525 13.06 108.169 13.06C108.561 13.06 108.953 13.088 109.345 13.144C109.737 13.2 110.045 13.2653 110.269 13.34V13.97H108.449C107.824 13.97 107.339 14.2733 106.993 14.88C106.657 15.4867 106.489 16.56 106.489 18.1C106.489 19.1547 106.573 19.9853 106.741 20.592C106.909 21.1987 107.147 21.6233 107.455 21.866C107.763 22.1087 108.141 22.23 108.589 22.23H110.409V22.86C110.185 22.9347 109.877 23 109.485 23.056C109.103 23.112 108.711 23.14 108.309 23.14Z" fill="white"/>
</svg>
